# xmcd
# 
# Track frame offsets:
#     150
#     26378
#     44228
#     69533
#     92628
#     114216
#     143710
#     171749
#     192568
#     218103
#     242330
#     258579
#     283651
# 
# Disc length: 4188
# 
# Revision: 3
# Processed by: cddbd v1.5.2PL0 Copyright (c) Steve Scherf et al.
# Submitted via: fre:ac v1.0.17
# 
DISCID=c4105a0d
DTITLE=Ego Express - Bieker
DYEAR=1999
DGENRE=Electronic
TTITLE0=HERE COMES THE NIGHT
TTITLE1=START/STOP
TTITLE2=WELCOME THE HUMANS
TTITLE3=WEITER
TTITLE4=SOMETHING TO HIDE
TTITLE5=TARGET
TTITLE6=MUSIC NO MUSIC MUSIC
TTITLE7=SMILY BLU
TTITLE8=A SHAKIN'S GOIN' ON
TTITLE9=WE ARE HERE
TTITLE10=ROCK
TTITLE11=MIPM
TTITLE12=ALLES MUSS RAUS
EXTD=YEAR: 1999
EXTT0=
EXTT1=
EXTT2=
EXTT3=
EXTT4=
EXTT5=
EXTT6=
EXTT7=
EXTT8=
EXTT9=
EXTT10=
EXTT11=
EXTT12=
PLAYORDER=
